<svg width="843" height="990" viewBox="0 0 843 990" fill="none" xmlns="http://www.w3.org/2000/svg">
<path d="M717.323 453.479C725.244 498.279 722.407 530.839 712.653 555.14C703.02 579.141 685.982 596.727 662.187 610.518C638.061 624.501 607.345 634.364 571.219 642.622C543.123 649.044 512.633 654.319 480.213 659.926C470.923 661.533 461.473 663.168 451.877 664.865C442.28 666.562 432.843 668.266 423.565 669.942C391.188 675.791 360.737 681.292 332.142 684.893C295.376 689.523 263.14 690.791 235.682 685.928C208.6 681.132 186.565 670.456 169.286 651.213C151.791 631.73 137.96 602.116 130.039 557.317C122.128 512.569 124.713 478.694 134.382 452.499C143.968 426.528 161.009 406.764 184.519 390.929C232.764 358.432 306.123 343.606 392.379 328.355C478.634 313.105 552.629 301.876 609.093 315.86C636.607 322.674 659.391 335.397 677.302 356.505C695.367 377.797 709.412 408.732 717.323 453.479Z" fill="#363636" stroke="#0085FF" stroke-width="31.3433"/>
<path d="M339.675 515.912C350.273 575.854 321.971 630.97 276.459 639.017C230.948 647.064 185.462 604.995 174.864 545.053C164.265 485.111 192.568 429.995 238.079 421.948C283.591 413.902 329.077 455.971 339.675 515.912Z" fill="#0085FF"/>
<ellipse cx="257.032" cy="529.143" rx="63.2731" ry="83.0034" transform="rotate(-10.0268 257.032 529.143)" fill="#363636"/>
<ellipse cx="227.027" cy="492.302" rx="33.3374" ry="49.666" transform="rotate(-10.0268 227.027 492.302)" fill="#5BB0FF"/>
<ellipse cx="265.305" cy="517.316" rx="17.6892" ry="18.3696" transform="rotate(-10.0268 265.305 517.316)" fill="white"/>
<path d="M668.966 455.758C679.564 515.7 651.262 570.816 605.75 578.863C560.239 586.909 514.753 544.84 504.155 484.898C493.556 424.957 521.859 369.841 567.37 361.794C612.882 353.747 658.368 395.816 668.966 455.758Z" fill="#0085FF"/>
<ellipse cx="586.324" cy="468.988" rx="63.2731" ry="83.0034" transform="rotate(-10.0268 586.324 468.988)" fill="#363636"/>
<ellipse cx="556.319" cy="432.148" rx="33.3374" ry="49.666" transform="rotate(-10.0268 556.319 432.148)" fill="#5BB0FF"/>
<ellipse cx="594.596" cy="457.162" rx="17.6892" ry="18.3696" transform="rotate(-10.0268 594.596 457.162)" fill="white"/>
<mask id="path-10-inside-1_31:668" fill="white">
<path d="M750.247 344.654C742.244 299.394 725.405 256.152 700.691 217.399C675.977 178.647 643.873 145.141 606.21 118.795C568.547 92.4499 526.064 73.7807 481.186 63.8535C436.308 53.9264 389.915 52.9358 344.654 60.9384C299.393 68.9409 256.152 85.7798 217.399 110.494C178.646 135.208 145.141 167.312 118.795 204.975C92.4497 242.638 73.7805 285.121 63.8533 329.999C53.9262 374.877 52.9357 421.27 60.9382 466.531L405.592 405.593L750.247 344.654Z"/>
</mask>
<path d="M750.247 344.654C742.244 299.394 725.405 256.152 700.691 217.399C675.977 178.647 643.873 145.141 606.21 118.795C568.547 92.4499 526.064 73.7807 481.186 63.8535C436.308 53.9264 389.915 52.9358 344.654 60.9384C299.393 68.9409 256.152 85.7798 217.399 110.494C178.646 135.208 145.141 167.312 118.795 204.975C92.4497 242.638 73.7805 285.121 63.8533 329.999C53.9262 374.877 52.9357 421.27 60.9382 466.531L405.592 405.593L750.247 344.654Z" fill="#363636" stroke="#0085FF" stroke-width="52.2388" mask="url(#path-10-inside-1_31:668)"/>
<mask id="path-11-inside-2_31:668" fill="white">
<path d="M781.777 522.983C789.779 568.243 788.789 614.637 778.862 659.515C768.935 704.393 750.265 746.876 723.92 784.539C697.574 822.201 664.069 854.306 625.316 879.02C586.563 903.734 543.322 920.573 498.061 928.575C452.8 936.578 406.407 935.587 361.529 925.66C316.651 915.733 274.168 897.064 236.505 870.718C198.843 844.373 166.738 810.867 142.024 772.114C117.31 733.361 100.471 690.12 92.4685 644.859L437.123 583.921L781.777 522.983Z"/>
</mask>
<path d="M781.777 522.983C789.779 568.243 788.789 614.637 778.862 659.515C768.935 704.393 750.265 746.876 723.92 784.539C697.574 822.201 664.069 854.306 625.316 879.02C586.563 903.734 543.322 920.573 498.061 928.575C452.8 936.578 406.407 935.587 361.529 925.66C316.651 915.733 274.168 897.064 236.505 870.718C198.843 844.373 166.738 810.867 142.024 772.114C117.31 733.361 100.471 690.12 92.4685 644.859L437.123 583.921L781.777 522.983Z" fill="#363636" stroke="#0085FF" stroke-width="52.2388" mask="url(#path-11-inside-2_31:668)"/>
</svg>
