<svg width="70" height="89" viewBox="0 0 70 89" fill="none" xmlns="http://www.w3.org/2000/svg">
<path d="M64.8632 45.1431C64.8632 49.6925 64.0169 52.8494 62.6333 55.0726C61.2668 57.2683 59.2829 58.7033 56.6996 59.6471C54.0804 60.6041 50.8839 61.0404 47.1828 61.2246C44.3043 61.3679 41.21 61.3564 37.92 61.3442C36.9771 61.3407 36.0181 61.3371 35.0436 61.3371C34.069 61.3371 33.11 61.3407 32.1671 61.3442C28.8771 61.3564 25.7828 61.3679 22.9043 61.2246C19.2032 61.0404 16.0067 60.6041 13.3875 59.6471C10.8042 58.7033 8.82032 57.2683 7.45381 55.0726C6.07022 52.8494 5.2239 49.6925 5.2239 45.1431C5.2239 40.5989 6.06827 37.3082 7.47653 34.897C8.87268 32.5065 10.8948 30.857 13.4856 29.707C18.8022 27.3469 26.2842 27.1642 35.0436 27.1642C43.8029 27.1642 51.2849 27.3469 56.6015 29.707C59.1923 30.857 61.2144 32.5065 62.6106 34.897C64.0188 37.3082 64.8632 40.5989 64.8632 45.1431Z" fill="white" stroke="#0085FF" stroke-width="3.13433"/>
<path d="M26.5878 44.7158C26.5878 50.8029 22.8412 55.7376 18.2194 55.7376C13.5977 55.7376 9.85107 50.8029 9.85107 44.7158C9.85107 38.6286 13.5977 33.694 18.2194 33.694C22.8412 33.694 26.5878 38.6286 26.5878 44.7158Z" fill="#0085FF"/>
<path d="M60.0615 44.5255C60.0615 50.6126 56.3148 55.5472 51.6931 55.5472C47.0714 55.5472 43.3247 50.6126 43.3247 44.5255C43.3247 38.4383 47.0714 33.5037 51.6931 33.5037C56.3148 33.5037 60.0615 38.4383 60.0615 44.5255Z" fill="#0085FF"/>
<mask id="path-4-inside-1_31:590" fill="white">
<path d="M70 35C70 30.4037 69.0947 25.8525 67.3358 21.6061C65.5769 17.3597 62.9988 13.5013 59.7487 10.2513C56.4987 7.00121 52.6403 4.42313 48.3939 2.66422C44.1475 0.905304 39.5963 0 35 0C30.4037 0 25.8525 0.905304 21.6061 2.66422C17.3597 4.42313 13.5013 7.00121 10.2513 10.2513C7.00121 13.5013 4.42313 17.3597 2.66422 21.6061C0.905301 25.8525 -4.01818e-07 30.4037 0 35L35 35H70Z"/>
</mask>
<path d="M70 35C70 30.4037 69.0947 25.8525 67.3358 21.6061C65.5769 17.3597 62.9988 13.5013 59.7487 10.2513C56.4987 7.00121 52.6403 4.42313 48.3939 2.66422C44.1475 0.905304 39.5963 0 35 0C30.4037 0 25.8525 0.905304 21.6061 2.66422C17.3597 4.42313 13.5013 7.00121 10.2513 10.2513C7.00121 13.5013 4.42313 17.3597 2.66422 21.6061C0.905301 25.8525 -4.01818e-07 30.4037 0 35L35 35H70Z" fill="white" stroke="#0085FF" stroke-width="5.22388" mask="url(#path-4-inside-1_31:590)"/>
<mask id="path-5-inside-2_31:590" fill="white">
<path d="M70 53.1094C70 57.7057 69.0947 62.257 67.3358 66.5034C65.5769 70.7498 62.9988 74.6081 59.7487 77.8582C56.4987 81.1082 52.6403 83.6863 48.3939 85.4452C44.1475 87.2041 39.5963 88.1094 35 88.1094C30.4037 88.1094 25.8525 87.2041 21.6061 85.4452C17.3597 83.6863 13.5013 81.1082 10.2513 77.8582C7.00121 74.6081 4.42313 70.7497 2.66422 66.5034C0.905301 62.257 -4.01818e-07 57.7057 0 53.1094L35 53.1094H70Z"/>
</mask>
<path d="M70 53.1094C70 57.7057 69.0947 62.257 67.3358 66.5034C65.5769 70.7498 62.9988 74.6081 59.7487 77.8582C56.4987 81.1082 52.6403 83.6863 48.3939 85.4452C44.1475 87.2041 39.5963 88.1094 35 88.1094C30.4037 88.1094 25.8525 87.2041 21.6061 85.4452C17.3597 83.6863 13.5013 81.1082 10.2513 77.8582C7.00121 74.6081 4.42313 70.7497 2.66422 66.5034C0.905301 62.257 -4.01818e-07 57.7057 0 53.1094L35 53.1094H70Z" fill="white" stroke="#0085FF" stroke-width="5.22388" mask="url(#path-5-inside-2_31:590)"/>
</svg>
