<svg width="100" height="60" viewBox="0 0 100 60" fill="none" xmlns="http://www.w3.org/2000/svg">
<path d="M97.5035 31.1373C97.5035 38.3847 96.1553 43.4137 93.9512 46.9553C91.7743 50.4532 88.6138 52.7392 84.4986 54.2427C80.3261 55.7671 75.2341 56.4622 69.3382 56.7557C64.7526 56.9839 59.8233 56.9656 54.5822 56.9461C53.0802 56.9405 51.5525 56.9348 50 56.9348C48.4475 56.9348 46.9198 56.9405 45.4178 56.9461C40.1767 56.9656 35.2474 56.9839 30.6618 56.7557C24.7659 56.4622 19.6739 55.7671 15.5014 54.2427C11.3862 52.7392 8.22571 50.4532 6.04883 46.9553C3.84474 43.4137 2.49653 38.3847 2.49653 31.1373C2.49653 23.8984 3.84162 18.6561 6.08502 14.815C8.30913 11.007 11.5305 8.37926 15.6576 6.54721C24.1271 2.7875 36.0462 2.49653 50 2.49653C63.9538 2.49653 75.8729 2.7875 84.3424 6.54721C88.4695 8.37926 91.6909 11.007 93.915 14.815C96.1584 18.6561 97.5035 23.8984 97.5035 31.1373Z" fill="white" stroke="#0085FF" stroke-width="4.99306"/>
<path d="M36.5302 30.4567C36.5302 40.1537 30.5617 48.0146 23.1992 48.0146C15.8367 48.0146 9.86816 40.1537 9.86816 30.4567C9.86816 20.7597 15.8367 12.8987 23.1992 12.8987C30.5617 12.8987 36.5302 20.7597 36.5302 30.4567Z" fill="#0085FF"/>
<path d="M89.8545 30.1536C89.8545 39.8506 83.8859 47.7115 76.5234 47.7115C69.1609 47.7115 63.1924 39.8506 63.1924 30.1536C63.1924 20.4566 69.1609 12.5956 76.5234 12.5956C83.8859 12.5956 89.8545 20.4566 89.8545 30.1536Z" fill="#0085FF"/>
</svg>
